<?xml version="1.0" standalone="no"?>
<!DOCTYPE svg PUBLIC "-//W3C//DTD SVG 20010904//EN"
 "http://www.w3.org/TR/2001/REC-SVG-20010904/DTD/svg10.dtd">
<svg version="1.0" xmlns="http://www.w3.org/2000/svg"
 width="346.000000pt" height="111.000000pt" viewBox="0 0 346.000000 111.000000"
 preserveAspectRatio="xMidYMid meet">

<g transform="translate(0.000000,111.000000) scale(0.100000,-0.100000)"
fill="#000000" stroke="none">
<path d="M106 1100 c-15 -5 -37 -17 -48 -27 -48 -43 -48 -45 -48 -520 0 -426
1 -450 20 -480 43 -71 11 -68 637 -71 544 -3 565 -2 609 17 35 16 49 29 64 63
18 40 20 68 20 473 0 401 -2 433 -19 472 -37 81 -12 78 -646 80 -308 1 -573
-2 -589 -7z m582 -147 c22 -22 33 -54 56 -155 l29 -128 139 0 c195 0 218 -14
218 -132 0 -59 3 -67 31 -94 43 -41 59 -76 59 -131 -1 -98 -75 -173 -174 -173
-62 0 -125 35 -151 84 l-20 36 -117 0 c-114 0 -117 1 -137 26 -16 20 -21 41
-21 83 -1 72 -26 127 -79 173 -51 43 -104 58 -210 58 -68 0 -84 3 -101 20 -41
41 -12 120 45 120 23 0 25 4 25 45 0 37 -3 45 -19 45 -30 0 -71 39 -71 66 0
34 17 63 43 74 12 5 113 9 225 9 l204 1 26 -27z m-237 -421 c157 -82 149 -309
-13 -377 -52 -21 -130 -19 -177 4 -124 64 -158 218 -70 324 65 79 167 98 260
49z"/>
<path d="M430 787 l0 -43 54 -17 c29 -10 73 -30 97 -46 24 -17 44 -29 46 -28
1 1 -8 41 -20 90 l-21 87 -78 0 -78 0 0 -43z"/>
<path d="M720 516 c0 -1 4 -16 9 -32 5 -16 12 -41 15 -56 6 -27 8 -28 73 -28
63 0 68 2 109 40 24 22 48 40 54 40 5 0 10 9 10 20 0 19 -7 20 -135 20 -74 0
-135 -2 -135 -4z"/>
<path d="M1017 328 c-6 -18 11 -48 27 -48 20 0 37 25 30 44 -7 19 -50 22 -57
4z"/>
<path d="M307 392 c-23 -25 -21 -68 3 -92 26 -26 51 -25 84 1 29 23 33 54 10
87 -19 28 -74 30 -97 4z"/>
<path d="M1640 560 l0 -250 60 0 60 0 0 94 c0 52 4 98 10 101 21 13 51 -19 84
-89 38 -83 67 -108 126 -110 46 -1 49 2 56 45 5 31 3 35 -24 45 -21 8 -38 27
-56 62 -14 28 -30 53 -36 57 -15 9 -12 25 4 25 23 0 74 67 82 105 8 46 -12
101 -47 128 -36 26 -94 36 -216 37 l-103 0 0 -250z m230 140 c44 -44 3 -110
-70 -110 l-40 0 0 65 0 65 45 0 c32 0 51 -6 65 -20z"/>
<path d="M2100 560 l0 -250 60 0 60 0 0 83 c0 71 3 87 20 102 11 10 22 16 23
14 2 -2 27 -48 56 -101 l52 -98 70 0 70 0 -15 28 c-8 15 -44 79 -80 142 -36
63 -66 121 -66 128 0 8 34 53 75 102 41 49 75 91 75 94 0 3 -28 6 -62 6 l-63
-1 -75 -94 -75 -94 -3 94 -3 95 -59 0 -60 0 0 -250z"/>
<path d="M2560 560 l0 -250 171 0 170 0 -3 43 -3 42 -107 3 -108 3 0 59 0 60
85 0 85 0 0 45 0 45 -85 0 -85 0 0 55 0 55 105 0 105 0 0 45 0 45 -165 0 -165
0 0 -250z"/>
<path d="M3070 795 c-25 -8 -60 -27 -78 -42 l-33 -28 39 -38 39 -38 38 25 c21
14 48 26 61 26 27 0 54 -25 54 -50 0 -24 -59 -96 -154 -190 -68 -67 -76 -78
-76 -112 l0 -38 185 0 185 0 0 50 0 50 -88 0 c-49 0 -91 2 -94 5 -3 3 28 37
68 76 83 81 104 118 104 184 0 40 -5 52 -33 80 -53 53 -130 67 -217 40z"/>
</g>
</svg>
